<mxfile host="app.diagrams.net" modified="2023-05-07T01:04:13.530Z" agent="Mozilla/5.0 (Macintosh; Intel Mac OS X 10_15_7) AppleWebKit/537.36 (KHTML, like Gecko) Chrome/112.0.0.0 Safari/537.36" etag="FmDrb_9MnavL1tuavLub" version="21.2.7" type="github">
  <diagram name="第 1 页" id="-02idUG7nGklGIDdgU3A">
    <mxGraphModel dx="984" dy="553" grid="0" gridSize="10" guides="1" tooltips="1" connect="1" arrows="1" fold="1" page="1" pageScale="1" pageWidth="827" pageHeight="1169" math="0" shadow="0">
      <root>
        <mxCell id="0" />
        <mxCell id="1" parent="0" />
        <mxCell id="ILd6SLxY5iuPmNZTyazk-2" value="用户A" style="shape=umlActor;verticalLabelPosition=bottom;verticalAlign=top;html=1;outlineConnect=0;" parent="1" vertex="1">
          <mxGeometry x="275" y="101" width="30" height="60" as="geometry" />
        </mxCell>
        <mxCell id="ILd6SLxY5iuPmNZTyazk-4" value="用户B" style="shape=umlActor;verticalLabelPosition=bottom;verticalAlign=top;html=1;outlineConnect=0;" parent="1" vertex="1">
          <mxGeometry x="275" y="211" width="30" height="60" as="geometry" />
        </mxCell>
        <mxCell id="ILd6SLxY5iuPmNZTyazk-6" value="用户C" style="shape=umlActor;verticalLabelPosition=bottom;verticalAlign=top;html=1;outlineConnect=0;" parent="1" vertex="1">
          <mxGeometry x="275" y="311" width="30" height="60" as="geometry" />
        </mxCell>
        <mxCell id="ILd6SLxY5iuPmNZTyazk-10" value="&amp;nbsp; 物品 A" style="rounded=1;whiteSpace=wrap;html=1;dashed=1;align=left;" parent="1" vertex="1">
          <mxGeometry x="445" y="101" width="120" height="40" as="geometry" />
        </mxCell>
        <mxCell id="ILd6SLxY5iuPmNZTyazk-11" value="&amp;nbsp; 物品 B" style="rounded=1;whiteSpace=wrap;html=1;dashed=1;align=left;" parent="1" vertex="1">
          <mxGeometry x="445" y="161" width="120" height="40" as="geometry" />
        </mxCell>
        <mxCell id="ILd6SLxY5iuPmNZTyazk-12" value="&amp;nbsp; 物品 C" style="rounded=1;whiteSpace=wrap;html=1;dashed=1;align=left;" parent="1" vertex="1">
          <mxGeometry x="445" y="221" width="120" height="40" as="geometry" />
        </mxCell>
        <mxCell id="ILd6SLxY5iuPmNZTyazk-13" value="&amp;nbsp; 物品 D" style="rounded=1;whiteSpace=wrap;html=1;dashed=1;align=left;" parent="1" vertex="1">
          <mxGeometry x="445" y="281" width="120" height="40" as="geometry" />
        </mxCell>
        <mxCell id="ILd6SLxY5iuPmNZTyazk-14" value="&amp;nbsp; 物品 E" style="rounded=1;whiteSpace=wrap;html=1;dashed=1;align=left;" parent="1" vertex="1">
          <mxGeometry x="445" y="351" width="120" height="40" as="geometry" />
        </mxCell>
        <mxCell id="ILd6SLxY5iuPmNZTyazk-15" value="喜欢" style="endArrow=classic;html=1;rounded=0;" parent="1" edge="1">
          <mxGeometry width="50" height="50" relative="1" as="geometry">
            <mxPoint x="341" y="144" as="sourcePoint" />
            <mxPoint x="428" y="126" as="targetPoint" />
          </mxGeometry>
        </mxCell>
        <mxCell id="ILd6SLxY5iuPmNZTyazk-16" value="根据用户的相似度去推荐" style="text;html=1;strokeColor=none;fillColor=none;align=center;verticalAlign=middle;whiteSpace=wrap;rounded=0;fontSize=19;" parent="1" vertex="1">
          <mxGeometry x="287" y="49" width="264" height="30" as="geometry" />
        </mxCell>
        <mxCell id="ILd6SLxY5iuPmNZTyazk-17" value="喜欢" style="endArrow=classic;html=1;rounded=0;" parent="1" edge="1">
          <mxGeometry width="50" height="50" relative="1" as="geometry">
            <mxPoint x="332" y="239" as="sourcePoint" />
            <mxPoint x="427" y="183" as="targetPoint" />
          </mxGeometry>
        </mxCell>
        <mxCell id="ILd6SLxY5iuPmNZTyazk-18" value="喜欢" style="endArrow=classic;html=1;rounded=0;" parent="1" edge="1">
          <mxGeometry width="50" height="50" relative="1" as="geometry">
            <mxPoint x="335" y="244" as="sourcePoint" />
            <mxPoint x="429" y="244" as="targetPoint" />
          </mxGeometry>
        </mxCell>
        <mxCell id="ILd6SLxY5iuPmNZTyazk-19" value="推荐" style="endArrow=classic;html=1;rounded=0;dashed=1;" parent="1" edge="1">
          <mxGeometry x="-0.2231" y="6" width="50" height="50" relative="1" as="geometry">
            <mxPoint x="433" y="367" as="sourcePoint" />
            <mxPoint x="322" y="157" as="targetPoint" />
            <mxPoint as="offset" />
          </mxGeometry>
        </mxCell>
        <mxCell id="ILd6SLxY5iuPmNZTyazk-20" value="用户A" style="shape=umlActor;verticalLabelPosition=bottom;verticalAlign=top;html=1;outlineConnect=0;" parent="1" vertex="1">
          <mxGeometry x="257" y="602" width="30" height="60" as="geometry" />
        </mxCell>
        <mxCell id="ILd6SLxY5iuPmNZTyazk-22" value="用户B" style="shape=umlActor;verticalLabelPosition=bottom;verticalAlign=top;html=1;outlineConnect=0;" parent="1" vertex="1">
          <mxGeometry x="257" y="712" width="30" height="60" as="geometry" />
        </mxCell>
        <mxCell id="ILd6SLxY5iuPmNZTyazk-24" value="用户C" style="shape=umlActor;verticalLabelPosition=bottom;verticalAlign=top;html=1;outlineConnect=0;" parent="1" vertex="1">
          <mxGeometry x="257" y="812" width="30" height="60" as="geometry" />
        </mxCell>
        <mxCell id="ILd6SLxY5iuPmNZTyazk-26" value="" style="curved=1;endArrow=classic;html=1;rounded=0;" parent="1" edge="1">
          <mxGeometry width="50" height="50" relative="1" as="geometry">
            <mxPoint x="560" y="621" as="sourcePoint" />
            <mxPoint x="563" y="871" as="targetPoint" />
            <Array as="points">
              <mxPoint x="621" y="625" />
              <mxPoint x="614" y="783" />
            </Array>
          </mxGeometry>
        </mxCell>
        <mxCell id="ILd6SLxY5iuPmNZTyazk-27" value="相似" style="edgeLabel;html=1;align=center;verticalAlign=middle;resizable=0;points=[];fontSize=13;" parent="ILd6SLxY5iuPmNZTyazk-26" vertex="1" connectable="0">
          <mxGeometry x="-0.2863" y="3" relative="1" as="geometry">
            <mxPoint as="offset" />
          </mxGeometry>
        </mxCell>
        <mxCell id="ILd6SLxY5iuPmNZTyazk-28" value="&amp;nbsp; 物品 A" style="rounded=1;whiteSpace=wrap;html=1;dashed=1;align=left;" parent="1" vertex="1">
          <mxGeometry x="427" y="602" width="120" height="40" as="geometry" />
        </mxCell>
        <mxCell id="ILd6SLxY5iuPmNZTyazk-29" value="&amp;nbsp; 物品 B" style="rounded=1;whiteSpace=wrap;html=1;dashed=1;align=left;" parent="1" vertex="1">
          <mxGeometry x="427" y="662" width="120" height="40" as="geometry" />
        </mxCell>
        <mxCell id="ILd6SLxY5iuPmNZTyazk-30" value="&amp;nbsp; 物品 C" style="rounded=1;whiteSpace=wrap;html=1;dashed=1;align=left;" parent="1" vertex="1">
          <mxGeometry x="427" y="722" width="120" height="40" as="geometry" />
        </mxCell>
        <mxCell id="ILd6SLxY5iuPmNZTyazk-31" value="&amp;nbsp; 物品 D" style="rounded=1;whiteSpace=wrap;html=1;dashed=1;align=left;" parent="1" vertex="1">
          <mxGeometry x="427" y="782" width="120" height="40" as="geometry" />
        </mxCell>
        <mxCell id="ILd6SLxY5iuPmNZTyazk-32" value="&amp;nbsp; 物品 E" style="rounded=1;whiteSpace=wrap;html=1;dashed=1;align=left;" parent="1" vertex="1">
          <mxGeometry x="427" y="852" width="120" height="40" as="geometry" />
        </mxCell>
        <mxCell id="ILd6SLxY5iuPmNZTyazk-33" value="喜欢" style="endArrow=classic;html=1;rounded=0;" parent="1" edge="1">
          <mxGeometry width="50" height="50" relative="1" as="geometry">
            <mxPoint x="323" y="645" as="sourcePoint" />
            <mxPoint x="410" y="837" as="targetPoint" />
          </mxGeometry>
        </mxCell>
        <mxCell id="ILd6SLxY5iuPmNZTyazk-34" value="根据物品的相似度去推荐" style="text;html=1;strokeColor=none;fillColor=none;align=center;verticalAlign=middle;whiteSpace=wrap;rounded=0;fontSize=19;" parent="1" vertex="1">
          <mxGeometry x="296" y="545" width="264" height="30" as="geometry" />
        </mxCell>
        <mxCell id="ILd6SLxY5iuPmNZTyazk-35" value="喜欢" style="endArrow=classic;html=1;rounded=0;" parent="1" edge="1">
          <mxGeometry width="50" height="50" relative="1" as="geometry">
            <mxPoint x="304" y="828" as="sourcePoint" />
            <mxPoint x="412" y="624" as="targetPoint" />
          </mxGeometry>
        </mxCell>
        <mxCell id="ILd6SLxY5iuPmNZTyazk-36" value="喜欢" style="endArrow=classic;html=1;rounded=0;" parent="1" edge="1">
          <mxGeometry width="50" height="50" relative="1" as="geometry">
            <mxPoint x="317" y="745" as="sourcePoint" />
            <mxPoint x="403" y="845" as="targetPoint" />
          </mxGeometry>
        </mxCell>
        <mxCell id="ILd6SLxY5iuPmNZTyazk-37" value="推荐" style="endArrow=classic;html=1;rounded=0;dashed=1;dashPattern=8 8;" parent="1" edge="1">
          <mxGeometry x="0.3354" y="3" width="50" height="50" relative="1" as="geometry">
            <mxPoint x="415" y="865" as="sourcePoint" />
            <mxPoint x="314" y="847" as="targetPoint" />
            <mxPoint as="offset" />
          </mxGeometry>
        </mxCell>
        <mxCell id="ILd6SLxY5iuPmNZTyazk-38" value="喜欢" style="endArrow=classic;html=1;rounded=0;" parent="1" edge="1">
          <mxGeometry width="50" height="50" relative="1" as="geometry">
            <mxPoint x="312" y="625" as="sourcePoint" />
            <mxPoint x="414" y="619" as="targetPoint" />
          </mxGeometry>
        </mxCell>
        <mxCell id="ILd6SLxY5iuPmNZTyazk-39" value="喜欢" style="endArrow=classic;html=1;rounded=0;" parent="1" edge="1">
          <mxGeometry width="50" height="50" relative="1" as="geometry">
            <mxPoint x="317" y="742" as="sourcePoint" />
            <mxPoint x="400" y="628" as="targetPoint" />
          </mxGeometry>
        </mxCell>
        <mxCell id="ILd6SLxY5iuPmNZTyazk-40" value="喜欢" style="endArrow=classic;html=1;rounded=0;" parent="1" edge="1">
          <mxGeometry width="50" height="50" relative="1" as="geometry">
            <mxPoint x="317" y="744" as="sourcePoint" />
            <mxPoint x="418" y="738" as="targetPoint" />
          </mxGeometry>
        </mxCell>
        <mxCell id="ILd6SLxY5iuPmNZTyazk-41" value="喜欢" style="endArrow=classic;html=1;rounded=0;" parent="1" edge="1">
          <mxGeometry width="50" height="50" relative="1" as="geometry">
            <mxPoint x="330" y="151" as="sourcePoint" />
            <mxPoint x="420" y="292" as="targetPoint" />
          </mxGeometry>
        </mxCell>
        <mxCell id="ILd6SLxY5iuPmNZTyazk-42" value="喜欢" style="endArrow=classic;html=1;rounded=0;" parent="1" edge="1">
          <mxGeometry width="50" height="50" relative="1" as="geometry">
            <mxPoint x="317" y="361" as="sourcePoint" />
            <mxPoint x="430" y="302" as="targetPoint" />
          </mxGeometry>
        </mxCell>
        <mxCell id="ILd6SLxY5iuPmNZTyazk-43" value="喜欢" style="endArrow=classic;html=1;rounded=0;" parent="1" edge="1">
          <mxGeometry width="50" height="50" relative="1" as="geometry">
            <mxPoint x="320" y="356" as="sourcePoint" />
            <mxPoint x="430" y="132" as="targetPoint" />
          </mxGeometry>
        </mxCell>
        <mxCell id="ILd6SLxY5iuPmNZTyazk-44" value="喜欢" style="endArrow=classic;html=1;rounded=0;" parent="1" edge="1">
          <mxGeometry width="50" height="50" relative="1" as="geometry">
            <mxPoint x="318" y="357" as="sourcePoint" />
            <mxPoint x="429" y="367" as="targetPoint" />
          </mxGeometry>
        </mxCell>
        <mxCell id="ILd6SLxY5iuPmNZTyazk-45" value="用户A" style="shape=umlActor;verticalLabelPosition=bottom;verticalAlign=top;html=1;outlineConnect=0;" parent="1" vertex="1">
          <mxGeometry x="399" y="1325" width="30" height="60" as="geometry" />
        </mxCell>
        <mxCell id="ILd6SLxY5iuPmNZTyazk-46" value="&amp;nbsp; 用户A&lt;br&gt;&amp;nbsp; 年龄：21&lt;br&gt;&amp;nbsp; 性别：男" style="rounded=1;whiteSpace=wrap;html=1;dashed=1;align=left;" parent="1" vertex="1">
          <mxGeometry x="233" y="1325" width="140" height="80" as="geometry" />
        </mxCell>
        <mxCell id="ILd6SLxY5iuPmNZTyazk-47" value="用户B" style="shape=umlActor;verticalLabelPosition=bottom;verticalAlign=top;html=1;outlineConnect=0;" parent="1" vertex="1">
          <mxGeometry x="399" y="1435" width="30" height="60" as="geometry" />
        </mxCell>
        <mxCell id="ILd6SLxY5iuPmNZTyazk-48" value="&amp;nbsp; 用户B&lt;br&gt;&amp;nbsp; 年龄：20&lt;br&gt;&amp;nbsp; 性别：男" style="rounded=1;whiteSpace=wrap;html=1;dashed=1;align=left;" parent="1" vertex="1">
          <mxGeometry x="233" y="1435" width="140" height="80" as="geometry" />
        </mxCell>
        <mxCell id="ILd6SLxY5iuPmNZTyazk-49" value="用户C" style="shape=umlActor;verticalLabelPosition=bottom;verticalAlign=top;html=1;outlineConnect=0;" parent="1" vertex="1">
          <mxGeometry x="399" y="1535" width="30" height="60" as="geometry" />
        </mxCell>
        <mxCell id="ILd6SLxY5iuPmNZTyazk-50" value="&amp;nbsp; 用户C&lt;br&gt;&amp;nbsp; 年龄：19&lt;br&gt;&amp;nbsp; 性别：女" style="rounded=1;whiteSpace=wrap;html=1;dashed=1;align=left;" parent="1" vertex="1">
          <mxGeometry x="233" y="1535" width="140" height="80" as="geometry" />
        </mxCell>
        <mxCell id="ILd6SLxY5iuPmNZTyazk-51" value="" style="curved=1;endArrow=classic;html=1;rounded=0;" parent="1" edge="1">
          <mxGeometry width="50" height="50" relative="1" as="geometry">
            <mxPoint x="219" y="1355" as="sourcePoint" />
            <mxPoint x="219" y="1585" as="targetPoint" />
            <Array as="points">
              <mxPoint x="179" y="1355" />
              <mxPoint x="139" y="1505" />
            </Array>
          </mxGeometry>
        </mxCell>
        <mxCell id="ILd6SLxY5iuPmNZTyazk-52" value="相似" style="edgeLabel;html=1;align=center;verticalAlign=middle;resizable=0;points=[];fontSize=13;" parent="ILd6SLxY5iuPmNZTyazk-51" vertex="1" connectable="0">
          <mxGeometry x="-0.2863" y="3" relative="1" as="geometry">
            <mxPoint as="offset" />
          </mxGeometry>
        </mxCell>
        <mxCell id="ILd6SLxY5iuPmNZTyazk-53" value="&amp;nbsp; 物品 A" style="rounded=1;whiteSpace=wrap;html=1;dashed=1;align=left;" parent="1" vertex="1">
          <mxGeometry x="569" y="1325" width="120" height="40" as="geometry" />
        </mxCell>
        <mxCell id="ILd6SLxY5iuPmNZTyazk-54" value="&amp;nbsp; 物品 B" style="rounded=1;whiteSpace=wrap;html=1;dashed=1;align=left;" parent="1" vertex="1">
          <mxGeometry x="569" y="1385" width="120" height="40" as="geometry" />
        </mxCell>
        <mxCell id="ILd6SLxY5iuPmNZTyazk-55" value="&amp;nbsp; 物品 C" style="rounded=1;whiteSpace=wrap;html=1;dashed=1;align=left;" parent="1" vertex="1">
          <mxGeometry x="569" y="1445" width="120" height="40" as="geometry" />
        </mxCell>
        <mxCell id="ILd6SLxY5iuPmNZTyazk-56" value="&amp;nbsp; 物品 D" style="rounded=1;whiteSpace=wrap;html=1;dashed=1;align=left;" parent="1" vertex="1">
          <mxGeometry x="569" y="1505" width="120" height="40" as="geometry" />
        </mxCell>
        <mxCell id="ILd6SLxY5iuPmNZTyazk-57" value="&amp;nbsp; 物品 E" style="rounded=1;whiteSpace=wrap;html=1;dashed=1;align=left;" parent="1" vertex="1">
          <mxGeometry x="569" y="1575" width="120" height="40" as="geometry" />
        </mxCell>
        <mxCell id="ILd6SLxY5iuPmNZTyazk-58" value="喜欢" style="endArrow=classic;html=1;rounded=0;" parent="1" edge="1">
          <mxGeometry width="50" height="50" relative="1" as="geometry">
            <mxPoint x="465" y="1368" as="sourcePoint" />
            <mxPoint x="552" y="1350" as="targetPoint" />
          </mxGeometry>
        </mxCell>
        <mxCell id="ILd6SLxY5iuPmNZTyazk-59" value="根据用户的相似度去推荐" style="text;html=1;strokeColor=none;fillColor=none;align=center;verticalAlign=middle;whiteSpace=wrap;rounded=0;fontSize=19;" parent="1" vertex="1">
          <mxGeometry x="323" y="1265" width="264" height="30" as="geometry" />
        </mxCell>
        <mxCell id="ILd6SLxY5iuPmNZTyazk-60" value="喜欢" style="endArrow=classic;html=1;rounded=0;" parent="1" edge="1">
          <mxGeometry width="50" height="50" relative="1" as="geometry">
            <mxPoint x="456" y="1463" as="sourcePoint" />
            <mxPoint x="551" y="1407" as="targetPoint" />
          </mxGeometry>
        </mxCell>
        <mxCell id="ILd6SLxY5iuPmNZTyazk-61" value="喜欢" style="endArrow=classic;html=1;rounded=0;" parent="1" edge="1">
          <mxGeometry width="50" height="50" relative="1" as="geometry">
            <mxPoint x="459" y="1468" as="sourcePoint" />
            <mxPoint x="553" y="1468" as="targetPoint" />
          </mxGeometry>
        </mxCell>
        <mxCell id="ILd6SLxY5iuPmNZTyazk-62" value="推荐" style="endArrow=classic;html=1;rounded=0;" parent="1" edge="1">
          <mxGeometry x="-0.2231" y="6" width="50" height="50" relative="1" as="geometry">
            <mxPoint x="557" y="1591" as="sourcePoint" />
            <mxPoint x="446" y="1381" as="targetPoint" />
            <mxPoint as="offset" />
          </mxGeometry>
        </mxCell>
        <mxCell id="ILd6SLxY5iuPmNZTyazk-63" value="喜欢" style="endArrow=classic;html=1;rounded=0;" parent="1" edge="1">
          <mxGeometry width="50" height="50" relative="1" as="geometry">
            <mxPoint x="454" y="1375" as="sourcePoint" />
            <mxPoint x="544" y="1516" as="targetPoint" />
          </mxGeometry>
        </mxCell>
        <mxCell id="ILd6SLxY5iuPmNZTyazk-64" value="喜欢" style="endArrow=classic;html=1;rounded=0;" parent="1" edge="1">
          <mxGeometry width="50" height="50" relative="1" as="geometry">
            <mxPoint x="441" y="1585" as="sourcePoint" />
            <mxPoint x="554" y="1526" as="targetPoint" />
          </mxGeometry>
        </mxCell>
        <mxCell id="ILd6SLxY5iuPmNZTyazk-65" value="喜欢" style="endArrow=classic;html=1;rounded=0;" parent="1" edge="1">
          <mxGeometry width="50" height="50" relative="1" as="geometry">
            <mxPoint x="444" y="1580" as="sourcePoint" />
            <mxPoint x="554" y="1356" as="targetPoint" />
          </mxGeometry>
        </mxCell>
        <mxCell id="ILd6SLxY5iuPmNZTyazk-66" value="喜欢" style="endArrow=classic;html=1;rounded=0;" parent="1" edge="1">
          <mxGeometry width="50" height="50" relative="1" as="geometry">
            <mxPoint x="442" y="1581" as="sourcePoint" />
            <mxPoint x="553" y="1591" as="targetPoint" />
          </mxGeometry>
        </mxCell>
      </root>
    </mxGraphModel>
  </diagram>
</mxfile>
